PathFileType	4	(X/Y/Z)	S01_0014_Gait_markers.trc
DataRate	CameraRate	NumFrames	NumMarkers	Units	OrigDataRate	OrigDataStartFrame	OrigNumFrames
250.000000	250.000000	4	54	mm	250.000000	321	367
Frame#	Time	HEAD_ANT			R_HEAD			L_HEAD			C7			R_BACK			L_BACK			STERNUM			R_ACROMION			R_HUM_PROX			R_HUM_ANT			R_HUM_POST			R_ELBOW_LAT			R_ELBOW_MED			R_FOREARM			R_WIRST_LAT			R_WRITS_MED			R_HAND			L_ACROMION			L_HUM_PROX			L_HUM_ANT			L_HUM_POST			L_ELBOW_LAT			L_ELBOW_MED			L_FOREARM			L_WRIST_LAT			L_WIRST_MED			L_HAND			R_ILIAC			SACRUM			L_ILIAC			R_GTROCH			R_THIGH__1			R_THIGH_2			R_THIGH_3			R_THIGH_4			R_SHANK_1			R_SHANK_2			R_SHANK_3			R_SHANK_4			R_HEEL			R_FOOT_LAT			R_FOOT_MED			L_GTROCH			L_THIGH_1			L_THIGH_2			L_THIGH_3			L_THIGH_4			L_SHANK_1			L_SHANK_2			L_SHANK_3			L_SHANK_4			L_HEEL			L_FOOT_LAT			L_FOOT_MED			
		X1	Y1	Z1	X2	Y2	Z2	X3	Y3	Z3	X4	Y4	Z4	X5	Y5	Z5	X6	Y6	Z6	X7	Y7	Z7	X8	Y8	Z8	X9	Y9	Z9	X10	Y10	Z10	X11	Y11	Z11	X12	Y12	Z12	X13	Y13	Z13	X14	Y14	Z14	X15	Y15	Z15	X16	Y16	Z16	X17	Y17	Z17	X18	Y18	Z18	X19	Y19	Z19	X20	Y20	Z20	X21	Y21	Z21	X22	Y22	Z22	X23	Y23	Z23	X24	Y24	Z24	X25	Y25	Z25	X26	Y26	Z26	X27	Y27	Z27	X28	Y28	Z28	X29	Y29	Z29	X30	Y30	Z30	X31	Y31	Z31	X32	Y32	Z32	X33	Y33	Z33	X34	Y34	Z34	X35	Y35	Z35	X36	Y36	Z36	X37	Y37	Z37	X38	Y38	Z38	X39	Y39	Z39	X40	Y40	Z40	X41	Y41	Z41	X42	Y42	Z42	X43	Y43	Z43	X44	Y44	Z44	X45	Y45	Z45	X46	Y46	Z46	X47	Y47	Z47	X48	Y48	Z48	X49	Y49	Z49	X50	Y50	Z50	X51	Y51	Z51	X52	Y52	Z52	X53	Y53	Z53	X54	Y54	Z54	

322	1.284	1743.195678710938	1704.430053710938	-351.0932006835934	1683.282958984375	1654.9775390625	-273.390472412109	1682.788818359375	1654.57080078125	-419.5073242187497	1543.521362304688	1485.155883789062	-349.3707580566403	1476.154296875	1283.40234375	-292.175842285156	1477.878784179688	1292.470581054688	-429.1025390624997	1726.982421875	1324.569580078125	-349.9965209960935	1617.097412109375	1427.163940429688	-175.4099731445309	1572.457763671875	1260.1044921875	-96.32024383544893	1632.3525390625	1173.46044921875	-95.36618041992162	1510.6884765625	1177.900512695312	-92.27244567871068	1555.087768554688	1069.908569335938	-90.7263031005857	1537.448364257812	1071.566772460938	-173.0109558105466	1649.714721679688	886.190185546875	-86.02243041992168	1698.930786132812	824.4735107421875	-120.6218795776365	1623.623779296875	797.310546875	-108.2970962524412	1684.677978515625	730.1400756835938	-75.68965148925766	1632.241333007812	1445.531860351563	-515.7404785156247	1620.721923828125	1279.992065429688	-613.3491210937498	1685.157470703125	1201.272827148438	-608.4123535156248	1566.536865234375	1201.23583984375	-644.5978393554685	1628.503173828125	1098.147827148438	-648.884094238281	1572.554565429688	1087.936767578125	-594.168762207031	1752.489990234375	937.3110961914064	-609.9738769531248	1783.736938476562	882.8169555664064	-551.9003295898435	1751.458251953125	853.3990478515626	-618.288879394531	1831.599243164062	806.5185546875001	-589.064758300781	1640.863525390625	1037.177734375	-186.1706237792966	1505.651123046875	1012.470031738281	-345.9726867675779	1611.889404296875	1035.532348632813	-531.1215209960935	1613.210205078125	885.2702026367188	-173.8422241210936	1736.695190429688	623.77783203125	-209.2762908935545	1784.539916992188	658.0797119140625	-207.1390838623045	1821.251953125	565.4989624023438	-248.4421081542968	1759.580078125	548.7850952148438	-235.1916656494139	1821.560668945312	332.2074279785157	-238.9247589111327	1879.993408203125	330.1068725585938	-256.5293884277343	1900.955200195312	248.5522155761719	-276.3710021972656	1838.711303710938	234.4348297119141	-262.6811218261718	1859.149169921875	32.08646392822273	-351.7268981933594	2023.74609375	39.03125000000006	-275.2992858886719	2069.244384765625	70.62988281250009	-364.5039367675781	1563.939208984375	931.4067382812501	-529.4254760742185	1565.238647460938	640.0524291992189	-518.1030883789061	1519.233642578125	675.9332885742189	-527.9530029296874	1477.161376953125	582.8593139648439	-495.732940673828	1538.576416015625	566.3334960937501	-492.662628173828	1372.715576171875	334.3667907714845	-470.3431091308593	1313.063598632812	345.9309387207032	-471.1524353027343	1266.797241210938	274.8413696289064	-448.9202575683593	1324.316284179688	247.4191894531251	-442.5659790039062	1138.486450195312	139.3189239501954	-367.4041748046874	1274.501098632812	21.38315391540537	-425.3421325683594	1314.034057617188	30.93023300170906	-323.0745239257812	
323	1.288	1749.02197265625	1704.5927734375	-351.1029968261715	1689.194091796875	1655.257202148438	-273.2941894531247	1688.3544921875	1654.667846679688	-419.3524475097653	1549.47265625	1485.05078125	-348.900726318359	1482.276489257812	1283.350830078125	-292.116271972656	1484.24462890625	1292.4267578125	-428.5114135742185	1731.013916015625	1324.302612304688	-347.1553649902341	1623.343383789062	1427.029418945312	-175.0119323730466	1578.889526367188	1259.80859375	-95.95334625244112	1638.700439453125	1173.0927734375	-95.45614624023412	1517.029418945312	1177.545532226562	-92.08000946044896	1561.779418945312	1068.947265625	-91.86060333251929	1543.299438476562	1070.380493164062	-174.4444885253904	1655.817504882812	885.8150634765625	-86.35482025146464	1705.059814453125	824.2241821289062	-121.1399917602537	1629.812622070312	796.9328002929688	-108.8981933593748	1691.111694335938	729.843994140625	-76.44686126708969	1638.126586914062	1445.5625	-515.5040283203122	1626.435791015625	1280.099853515625	-613.0540771484372	1690.713623046875	1201.432739257813	-608.328918457031	1571.988891601562	1201.43408203125	-644.0911865234373	1634.102172851562	1098.047485351563	-648.4979858398435	1578.364135742188	1087.877075195313	-593.8897705078123	1757.43505859375	936.9730224609376	-610.514709472656	1788.5966796875	882.2087402343751	-552.646301269531	1756.151611328125	852.9880981445314	-618.9943237304685	1836.2099609375	805.8498535156251	-590.2528686523435	1647.775512695312	1037.28515625	-186.1138000488279	1512.088500976562	1012.790832519531	-346.5813293457029	1618.747192382812	1035.419067382813	-531.2550048828123	1622.090454101562	885.5629272460938	-173.3638305664061	1743.21240234375	624.754638671875	-210.346969604492	1791.193359375	658.9942626953125	-208.0231018066405	1827.31884765625	565.9544677734375	-249.075469970703	1765.621826171875	549.5621948242188	-235.6144714355468	1827.187255859375	333.3784484863282	-239.5391998291015	1885.518676757812	330.6529846191407	-256.7490539550781	1906.10791015625	248.8303833007813	-276.9621582031249	1843.717529296875	235.1213684082032	-263.4411621093749	1860.332397460938	32.81589889526375	-351.4237670898438	2025.58056640625	37.22112655639655	-275.3979797363281	2071.246826171875	68.47748565673837	-364.6396789550781	1570.413452148438	931.1121826171876	-529.5942382812498	1572.705810546875	639.5577392578126	-518.4903564453124	1526.686645507812	675.4826049804689	-528.3927001953124	1484.801025390625	581.9716796875001	-496.2641296386718	1546.262817382812	565.7065429687501	-493.2084655761718	1378.678955078125	334.4911499023439	-471.0355529785156	1319.08642578125	347.0447082519532	-472.0979614257812	1271.681396484375	276.4436645507814	-449.9501647949218	1329.0654296875	248.0880584716798	-443.1968383789062	1141.954711914062	143.285125732422	-368.5394287109374	1275.044189453125	21.82580184936533	-425.459228515625	1314.171997070312	31.06566429138191	-323.1141052246094	
324	1.292	1754.85546875	1704.989990234375	-351.0391235351559	1695.603393554688	1655.596801757812	-272.354583740234	1694.328247070312	1654.974243164062	-419.2512207031247	1555.587524414062	1485.280029296875	-348.5586242675778	1488.727416992188	1283.52734375	-291.919738769531	1490.225341796875	1292.672485351562	-427.4608764648435	1737.35546875	1324.64404296875	-346.6469421386716	1629.612182617188	1426.929077148438	-174.5114746093747	1585.268188476562	1259.575317382812	-95.67190551757784	1644.955078125	1172.791259765625	-95.44649505615209	1523.296020507812	1177.440795898438	-91.82302856445287	1567.974975585938	1068.744262695312	-91.79309844970679	1549.807250976562	1070.29150390625	-174.2448272705076	1662.042236328125	885.5703125	-86.74519348144511	1711.35546875	824.0802001953125	-121.8231430053709	1636.202758789062	796.5762939453125	-109.6266784667967	1697.368530273438	729.5678100585938	-77.16767120361312	1643.73193359375	1445.8515625	-515.1996459960934	1631.886108398438	1280.325317382813	-612.7958984374997	1696.144287109375	1201.582397460938	-608.2340698242185	1577.458740234375	1201.647338867188	-643.8570556640623	1639.216552734375	1098.32275390625	-648.307434082031	1583.468383789062	1088.173217773438	-593.7855834960935	1762.410278320312	936.7703857421876	-611.0483398437498	1793.392944335938	881.7542724609376	-553.4665527343748	1760.852661132812	852.7175903320314	-619.731018066406	1840.95166015625	805.3498535156251	-591.297668457031	1654.118896484375	1037.157104492188	-186.1308441162107	1518.58740234375	1013.27685546875	-347.3164367675779	1625.69287109375	1035.378784179688	-531.4218139648435	1628.559814453125	886.0751953125	-173.3567810058592	1749.58349609375	626.1605224609375	-210.6356048583983	1797.669311523438	660.1056518554688	-209.1216735839842	1832.872314453125	566.4841918945312	-249.4903106689452	1772.034545898438	550.6190795898438	-235.786651611328	1832.982788085938	334.3147888183594	-239.8879394531249	1891.328979492188	331.2333679199219	-257.2893066406249	1911.093994140625	249.0944366455079	-277.4636840820312	1848.971313476562	236.0498352050782	-263.4332580566406	1861.290283203125	33.4615783691407	-350.9079284667969	2026.864013671875	35.65273666381842	-275.2867431640625	2072.876220703125	66.32719421386727	-364.8892822265625	1576.689331054688	930.7755737304689	-529.5350952148435	1580.280883789062	638.9837036132814	-518.8777465820311	1534.187866210938	674.8054809570314	-528.6328735351561	1492.700805664062	581.2777709960939	-496.6481933593749	1554.220947265625	565.1631469726564	-493.7684936523436	1384.740844726562	334.662567138672	-471.6857299804687	1325.415649414062	348.2415771484376	-472.8829040527343	1277.138427734375	278.4097290039064	-450.8559875488281	1333.962280273438	249.2229766845704	-444.4229125976562	1145.696655273438	147.300262451172	-369.6066589355468	1275.608032226562	22.37843513488779	-425.4990234375	1311.826171875	30.49614524841316	-321.7616882324219	
325	1.296	1760.7392578125	1705.480590820312	-350.8720703124996	1701.68310546875	1656.14990234375	-272.198822021484	1700.076538085938	1655.397094726562	-418.9789733886715	1561.424926757812	1485.369506835938	-348.2987365722653	1488.949462890625	1284.711547851562	-292.9931945800778	1496.528686523438	1292.730224609375	-426.8299865722653	1743.60693359375	1325.136108398438	-346.5740661621091	1635.87890625	1427.010864257812	-174.2065887451169	1591.643188476562	1259.4873046875	-95.41149139404268	1651.198974609375	1172.674194335938	-95.39714050292943	1529.740112304688	1177.399658203125	-91.56104278564428	1574.210205078125	1068.6015625	-91.93502807617163	1556.050170898438	1070.77197265625	-172.9401550292966	1669.256591796875	885.5870361328125	-87.6510009765623	1717.699096679688	823.9913940429688	-122.3682937622068	1642.476440429688	796.4207153320312	-109.991485595703	1703.712768554688	729.4533081054688	-77.77331542968734	1649.544677734375	1446.29345703125	-514.9224853515622	1637.56640625	1280.620849609375	-612.4929809570309	1701.635009765625	1201.763549804688	-608.116516113281	1582.803344726562	1202.038818359375	-643.467834472656	1644.624145507812	1098.332275390625	-647.984436035156	1589.253051757812	1088.234741210938	-593.3192749023435	1767.298583984375	936.4324340820314	-611.5823974609373	1798.415771484375	881.3161010742189	-554.2025756835935	1765.301025390625	852.5430297851564	-620.3876953124998	1845.416625976562	804.7870483398439	-592.5197753906248	1660.71337890625	1037.0322265625	-186.0626831054685	1525.1259765625	1013.942443847656	-347.863098144531	1632.596801757812	1035.4404296875	-531.446105957031	1635.48193359375	886.8184204101562	-173.1088104248045	1756.263061523438	627.20263671875	-211.4223785400389	1804.226684570312	661.3408813476562	-209.8542175292967	1839.364013671875	567.5856323242188	-250.2459106445311	1778.58544921875	551.7154541015625	-236.0664672851561	1838.73779296875	335.0241699218751	-240.2521362304687	1897.086181640625	331.4875183105469	-257.9221496582031	1915.96044921875	249.6834259033204	-277.9777221679687	1853.694702148438	237.1209259033204	-263.1687622070312	1862.140625	34.02441406250008	-350.6769714355469	2027.821533203125	34.02037811279303	-275.3472595214844	2074.29736328125	63.5699996948243	-365.5003967285156	1584.381469726562	930.9556274414064	-530.4633178710935	1588.1640625	638.4702758789064	-519.2174682617186	1541.891357421875	674.2656860351564	-528.7044067382811	1501.145751953125	580.9793701171876	-497.9682006835936	1562.11865234375	564.0776367187501	-494.5736999511718	1390.93896484375	335.1284484863282	-472.6252746582031	1331.944946289062	349.164764404297	-473.7499084472656	1282.540405273438	279.875701904297	-451.9824829101562	1339.101196289062	250.2669372558595	-445.0889892578124	1149.7255859375	151.4370117187501	-370.6148986816406	1276.1923828125	22.76223373413096	-425.5325012207031	1312.259887695312	30.75205993652351	-321.9518737792969	
